<svg width="846" height="90" viewBox="0 0 846 90" fill="none" xmlns="http://www.w3.org/2000/svg">
<path d="M436.974 36.2422C436.974 41.2227 435.839 45.9102 433.569 50.3047C431.425 54.6992 428.336 58.5078 424.3 61.7305C420.391 64.9531 415.661 67.4922 410.113 69.3477C404.564 71.2031 398.574 72.1309 392.142 72.1309C383.062 72.1309 374.802 70.5195 367.361 67.2969C360.047 63.9766 353.048 57.9219 346.364 49.1328C339.68 57.7266 332.807 63.7324 325.745 67.1504C318.809 70.4707 310.423 72.1309 300.586 72.1309C294.407 72.1309 288.606 71.2031 283.183 69.3477C277.76 67.4922 272.968 64.9531 268.806 61.7305C264.771 58.5078 261.555 54.6992 259.159 50.3047C256.889 45.9102 255.754 41.2227 255.754 36.2422C255.754 31.2617 256.889 26.5742 259.159 22.1797C261.555 17.6875 264.708 13.8789 268.617 10.7539C272.653 7.53125 277.382 5.04102 282.805 3.2832C288.227 1.42773 294.154 0.5 300.586 0.5C310.423 0.5 318.809 2.20898 325.745 5.62695C332.807 9.04492 339.68 15.1484 346.364 23.9375C353.048 15.1484 360.047 9.04492 367.361 5.62695C374.802 2.20898 383.062 0.5 392.142 0.5C398.321 0.5 404.122 1.42773 409.545 3.2832C414.968 5.04102 419.697 7.53125 423.732 10.7539C427.894 13.8789 431.11 17.6875 433.38 22.1797C435.776 26.5742 436.974 31.2617 436.974 36.2422ZM419.949 36.2422C419.949 29.2109 417.238 23.6445 411.815 19.543C406.392 15.4414 399.961 13.3906 392.52 13.3906C376.504 13.3906 363.83 21.0078 354.498 36.2422C363.83 51.7695 376.504 59.5332 392.52 59.5332C399.961 59.5332 406.329 57.2383 411.626 52.6484C416.923 48.0586 419.697 42.5898 419.949 36.2422ZM338.23 36.2422C329.402 21.0078 316.728 13.3906 300.208 13.3906C292.767 13.3906 286.336 15.5391 280.913 19.8359C275.49 24.1328 272.779 29.6016 272.779 36.2422C272.779 42.5898 275.364 48.0586 280.535 52.6484C285.705 57.2383 292.263 59.5332 300.208 59.5332C316.476 59.5332 329.15 51.7695 338.23 36.2422Z" fill="black"/>
<path fill-rule="evenodd" clip-rule="evenodd" d="M300.208 13.3906C316.728 13.3906 329.402 21.0078 338.23 36.2422C329.15 51.7695 316.476 59.5332 300.208 59.5332C292.263 59.5332 285.705 57.2383 280.535 52.6484C275.364 48.0586 272.779 42.5898 272.779 36.2422C272.779 29.6016 275.49 24.1328 280.913 19.8359C286.336 15.5391 292.767 13.3906 300.208 13.3906ZM419.949 36.2422C419.949 29.2109 417.238 23.6445 411.815 19.543C406.392 15.4414 399.961 13.3906 392.52 13.3906C376.504 13.3906 363.83 21.0078 354.498 36.2422C363.83 51.7695 376.504 59.5332 392.52 59.5332C399.961 59.5332 406.329 57.2383 411.626 52.6484C416.923 48.0586 419.697 42.5898 419.949 36.2422ZM436.974 36.2422C436.974 41.2227 435.839 45.9102 433.569 50.3047C431.425 54.6992 428.336 58.5078 424.3 61.7305C420.391 64.9531 415.661 67.4922 410.113 69.3477C404.564 71.2031 398.574 72.1309 392.142 72.1309C383.062 72.1309 374.802 70.5195 367.361 67.2969C360.047 63.9766 353.048 57.9219 346.364 49.1328C339.68 57.7266 332.807 63.7324 325.745 67.1504C318.809 70.4707 310.423 72.1309 300.586 72.1309C294.407 72.1309 288.606 71.2031 283.183 69.3477C277.76 67.4922 272.968 64.9531 268.806 61.7305C264.771 58.5078 261.555 54.6992 259.159 50.3047C256.889 45.9102 255.754 41.2227 255.754 36.2422C255.754 31.2617 256.889 26.5742 259.159 22.1797C261.555 17.6875 264.708 13.8789 268.617 10.7539C272.653 7.53125 277.382 5.04102 282.805 3.2832C288.227 1.42773 294.154 0.5 300.586 0.5C310.423 0.5 318.809 2.20898 325.745 5.62695C332.807 9.04492 339.68 15.1484 346.364 23.9375C353.048 15.1484 360.047 9.04492 367.361 5.62695C374.802 2.20898 383.062 0.5 392.142 0.5C398.321 0.5 404.122 1.42773 409.545 3.2832C414.968 5.04102 419.697 7.53125 423.732 10.7539C427.894 13.8789 431.11 17.6875 433.38 22.1797C435.776 26.5742 436.974 31.2617 436.974 36.2422Z" fill="black"/>
<path fill-rule="evenodd" clip-rule="evenodd" d="M99.6097 23.0084C108.093 11.0532 114.106 6.47095 129.11 5.5084C139.967 6.05019 145.471 7.64968 153.11 15.5084C158.618 22.692 160.87 27.354 161.11 38.5084C161.003 47.8007 159.726 52.6585 154.61 60.5084C146.42 69.0939 141.181 71.1712 131.11 72.0084C116.411 71.6728 109.427 68.0317 99.6097 54.5084V89.103H84.7539V6H99.6097V23.0084ZM125.109 17.0084C113.609 17.0084 105.851 23.7481 99.1094 38.5084C104.912 52.4785 112.609 60.0084 125.109 60.5084C137.609 61.0084 145.177 53.1475 146.109 38.5084C145.465 24.2537 136.609 17.0084 125.109 17.0084Z" fill="black"/>
<path fill-rule="evenodd" clip-rule="evenodd" d="M209.109 5.5084C190.662 5.1626 170.47 15.4806 170.109 38.5084C169.748 61.5362 187.194 71.9345 209.109 72.0084C231.025 72.0823 246.447 59.6719 246.754 38.5084C247.061 17.3449 227.557 5.8542 209.109 5.5084ZM209.109 16.5084C194.109 16.5084 184.609 24.5093 184.609 38.5084C184.609 52.5075 192.109 61.0084 209.109 61.0084C226.109 61.0084 232.109 51.5075 232.109 38.5084C232.109 25.5093 224.109 16.5084 209.109 16.5084Z" fill="black"/>
<path d="M0.5 69.5H14.7539V17.0427H54.3381V69.5H68.7539V6L0.5 5.95264V69.5Z" fill="black"/>
<path d="M682.8 29.7832H668.8C664.415 19.9183 659.3 14.2832 645.8 14.2832C632.3 14.2832 623.8 23.7832 623.8 38.2832C623.8 52.7832 635.3 58.7832 645.8 58.7832C656.3 58.7832 663.856 53.4003 668.8 43.7832H682.8C677.648 61.3731 662.3 69.7832 645.8 69.7833C629.3 69.7835 609.8 57.7833 609.3 38.2832C608.8 18.7831 624.8 2.78326 645.8 3.2832C666.8 3.78315 676.752 11.2609 682.8 29.7832Z" fill="black"/>
<path d="M586.3 29.7832H600.3C594.252 11.2609 584.299 3.78315 563.299 3.2832C542.299 2.78326 526.299 18.7831 526.799 38.2832C527.299 57.7833 546.799 69.7835 563.299 69.7833C579.799 69.7832 595.148 61.3731 600.3 43.7832H586.3C581.356 53.4003 573.799 58.7832 563.299 58.7832C552.799 58.7832 541.299 52.7832 541.299 38.2832C541.299 23.7832 549.799 14.2832 563.299 14.2832C576.799 14.2832 581.915 19.9183 586.3 29.7832Z" fill="black"/>
<path fill-rule="evenodd" clip-rule="evenodd" d="M461.5 41.7833H515.799C515.898 28.683 512.587 17.3847 504 11C498.137 6.21676 491.122 4.12551 482.799 3.28333C474.475 2.44115 463.637 5.87487 457.416 12C451.458 17.8659 446.812 25.3916 446.799 36.7833C446.785 48.1751 451.207 56.5322 457.5 61.6421C464.521 67.3214 476.175 69.9626 485 69.5C493.065 69.0772 497.016 68.1574 501.5 67C506.351 65.3284 509.612 63.7208 515.799 60.1763L514.995 50.2837C504.614 54.944 495.5 57 495.5 57C493.767 57.657 478.306 57.9806 473.5 55.5865C466.294 53.1827 462.539 48.7813 461.5 41.7833ZM502 30H461.5C462.989 23.9477 464.761 20.7853 468 18.5401C472.274 15.2468 476.969 13.689 483.3 14.2832C488.417 14.7635 492.268 16.2446 495.286 18.5401C497.863 20.4998 499.457 22.4938 500.5 25C501.318 26.5489 501.416 28.0452 502 30Z" fill="black"/>
<path fill-rule="evenodd" clip-rule="evenodd" d="M801.299 4.78315C816.299 3.28315 845.5 4.78315 845.5 4.78315V68.2831H831.299V45.0152H813.799L795.299 68.2831H778.299L797.299 45.0152C784.728 40.6701 779.299 34.7831 779.299 24.2831C779.299 13.7831 786.299 6.28315 801.299 4.78315ZM831.299 14.7831H804.299C796.904 16.2536 794.299 18.2831 794.299 24.2831C794.299 30.2831 797.191 32.5996 804.299 34.7831H831.299V14.7831Z" fill="black"/>
<path d="M693.8 4.78315H707.961V54.3748L747.799 4.78315H766.299V68.2831H752.299V17.7831L712.299 68.2831H693.8V4.78315Z" fill="black"/>
<path d="M436.974 36.2422C436.974 41.2227 435.839 45.9102 433.569 50.3047C431.425 54.6992 428.336 58.5078 424.3 61.7305C420.391 64.9531 415.661 67.4922 410.113 69.3477C404.564 71.2031 398.574 72.1309 392.142 72.1309C383.062 72.1309 374.802 70.5195 367.361 67.2969C360.047 63.9766 353.048 57.9219 346.364 49.1328C339.68 57.7266 332.807 63.7324 325.745 67.1504C318.809 70.4707 310.423 72.1309 300.586 72.1309C294.407 72.1309 288.606 71.2031 283.183 69.3477C277.76 67.4922 272.968 64.9531 268.806 61.7305C264.771 58.5078 261.555 54.6992 259.159 50.3047C256.889 45.9102 255.754 41.2227 255.754 36.2422C255.754 31.2617 256.889 26.5742 259.159 22.1797C261.555 17.6875 264.708 13.8789 268.617 10.7539C272.653 7.53125 277.382 5.04102 282.805 3.2832C288.227 1.42773 294.154 0.5 300.586 0.5C310.423 0.5 318.809 2.20898 325.745 5.62695C332.807 9.04492 339.68 15.1484 346.364 23.9375C353.048 15.1484 360.047 9.04492 367.361 5.62695C374.802 2.20898 383.062 0.5 392.142 0.5C398.321 0.5 404.122 1.42773 409.545 3.2832C414.968 5.04102 419.697 7.53125 423.732 10.7539C427.894 13.8789 431.11 17.6875 433.38 22.1797C435.776 26.5742 436.974 31.2617 436.974 36.2422ZM419.949 36.2422C419.949 29.2109 417.238 23.6445 411.815 19.543C406.392 15.4414 399.961 13.3906 392.52 13.3906C376.504 13.3906 363.83 21.0078 354.498 36.2422C363.83 51.7695 376.504 59.5332 392.52 59.5332C399.961 59.5332 406.329 57.2383 411.626 52.6484C416.923 48.0586 419.697 42.5898 419.949 36.2422ZM338.23 36.2422C329.402 21.0078 316.728 13.3906 300.208 13.3906C292.767 13.3906 286.336 15.5391 280.913 19.8359C275.49 24.1328 272.779 29.6016 272.779 36.2422C272.779 42.5898 275.364 48.0586 280.535 52.6484C285.705 57.2383 292.263 59.5332 300.208 59.5332C316.476 59.5332 329.15 51.7695 338.23 36.2422Z" stroke="black"/>
<path fill-rule="evenodd" clip-rule="evenodd" d="M300.208 13.3906C316.728 13.3906 329.402 21.0078 338.23 36.2422C329.15 51.7695 316.476 59.5332 300.208 59.5332C292.263 59.5332 285.705 57.2383 280.535 52.6484C275.364 48.0586 272.779 42.5898 272.779 36.2422C272.779 29.6016 275.49 24.1328 280.913 19.8359C286.336 15.5391 292.767 13.3906 300.208 13.3906ZM419.949 36.2422C419.949 29.2109 417.238 23.6445 411.815 19.543C406.392 15.4414 399.961 13.3906 392.52 13.3906C376.504 13.3906 363.83 21.0078 354.498 36.2422C363.83 51.7695 376.504 59.5332 392.52 59.5332C399.961 59.5332 406.329 57.2383 411.626 52.6484C416.923 48.0586 419.697 42.5898 419.949 36.2422ZM436.974 36.2422C436.974 41.2227 435.839 45.9102 433.569 50.3047C431.425 54.6992 428.336 58.5078 424.3 61.7305C420.391 64.9531 415.661 67.4922 410.113 69.3477C404.564 71.2031 398.574 72.1309 392.142 72.1309C383.062 72.1309 374.802 70.5195 367.361 67.2969C360.047 63.9766 353.048 57.9219 346.364 49.1328C339.68 57.7266 332.807 63.7324 325.745 67.1504C318.809 70.4707 310.423 72.1309 300.586 72.1309C294.407 72.1309 288.606 71.2031 283.183 69.3477C277.76 67.4922 272.968 64.9531 268.806 61.7305C264.771 58.5078 261.555 54.6992 259.159 50.3047C256.889 45.9102 255.754 41.2227 255.754 36.2422C255.754 31.2617 256.889 26.5742 259.159 22.1797C261.555 17.6875 264.708 13.8789 268.617 10.7539C272.653 7.53125 277.382 5.04102 282.805 3.2832C288.227 1.42773 294.154 0.5 300.586 0.5C310.423 0.5 318.809 2.20898 325.745 5.62695C332.807 9.04492 339.68 15.1484 346.364 23.9375C353.048 15.1484 360.047 9.04492 367.361 5.62695C374.802 2.20898 383.062 0.5 392.142 0.5C398.321 0.5 404.122 1.42773 409.545 3.2832C414.968 5.04102 419.697 7.53125 423.732 10.7539C427.894 13.8789 431.11 17.6875 433.38 22.1797C435.776 26.5742 436.974 31.2617 436.974 36.2422Z" stroke="black"/>
<path fill-rule="evenodd" clip-rule="evenodd" d="M99.6097 23.0084C108.093 11.0532 114.106 6.47095 129.11 5.5084C139.967 6.05019 145.471 7.64968 153.11 15.5084C158.618 22.692 160.87 27.354 161.11 38.5084C161.003 47.8007 159.726 52.6585 154.61 60.5084C146.42 69.0939 141.181 71.1712 131.11 72.0084C116.411 71.6728 109.427 68.0317 99.6097 54.5084V89.103H84.7539V6H99.6097V23.0084ZM125.109 17.0084C113.609 17.0084 105.851 23.7481 99.1094 38.5084C104.912 52.4785 112.609 60.0084 125.109 60.5084C137.609 61.0084 145.177 53.1475 146.109 38.5084C145.465 24.2537 136.609 17.0084 125.109 17.0084Z" stroke="black"/>
<path fill-rule="evenodd" clip-rule="evenodd" d="M209.109 5.5084C190.662 5.1626 170.47 15.4806 170.109 38.5084C169.748 61.5362 187.194 71.9345 209.109 72.0084C231.025 72.0823 246.447 59.6719 246.754 38.5084C247.061 17.3449 227.557 5.8542 209.109 5.5084ZM209.109 16.5084C194.109 16.5084 184.609 24.5093 184.609 38.5084C184.609 52.5075 192.109 61.0084 209.109 61.0084C226.109 61.0084 232.109 51.5075 232.109 38.5084C232.109 25.5093 224.109 16.5084 209.109 16.5084Z" stroke="black"/>
<path d="M0.5 69.5H14.7539V17.0427H54.3381V69.5H68.7539V6L0.5 5.95264V69.5Z" stroke="black"/>
<path d="M682.8 29.7832H668.8C664.415 19.9183 659.3 14.2832 645.8 14.2832C632.3 14.2832 623.8 23.7832 623.8 38.2832C623.8 52.7832 635.3 58.7832 645.8 58.7832C656.3 58.7832 663.856 53.4003 668.8 43.7832H682.8C677.648 61.3731 662.3 69.7832 645.8 69.7833C629.3 69.7835 609.8 57.7833 609.3 38.2832C608.8 18.7831 624.8 2.78326 645.8 3.2832C666.8 3.78315 676.752 11.2609 682.8 29.7832Z" stroke="black"/>
<path d="M586.3 29.7832H600.3C594.252 11.2609 584.299 3.78315 563.299 3.2832C542.299 2.78326 526.299 18.7831 526.799 38.2832C527.299 57.7833 546.799 69.7835 563.299 69.7833C579.799 69.7832 595.148 61.3731 600.3 43.7832H586.3C581.356 53.4003 573.799 58.7832 563.299 58.7832C552.799 58.7832 541.299 52.7832 541.299 38.2832C541.299 23.7832 549.799 14.2832 563.299 14.2832C576.799 14.2832 581.915 19.9183 586.3 29.7832Z" stroke="black"/>
<path fill-rule="evenodd" clip-rule="evenodd" d="M461.5 41.7833H515.799C515.898 28.683 512.587 17.3847 504 11C498.137 6.21676 491.122 4.12551 482.799 3.28333C474.475 2.44115 463.637 5.87487 457.416 12C451.458 17.8659 446.812 25.3916 446.799 36.7833C446.785 48.1751 451.207 56.5322 457.5 61.6421C464.521 67.3214 476.175 69.9626 485 69.5C493.065 69.0772 497.016 68.1574 501.5 67C506.351 65.3284 509.612 63.7208 515.799 60.1763L514.995 50.2837C504.614 54.944 495.5 57 495.5 57C493.767 57.657 478.306 57.9806 473.5 55.5865C466.294 53.1827 462.539 48.7813 461.5 41.7833ZM502 30H461.5C462.989 23.9477 464.761 20.7853 468 18.5401C472.274 15.2468 476.969 13.689 483.3 14.2832C488.417 14.7635 492.268 16.2446 495.286 18.5401C497.863 20.4998 499.457 22.4938 500.5 25C501.318 26.5489 501.416 28.0452 502 30Z" stroke="black"/>
<path fill-rule="evenodd" clip-rule="evenodd" d="M801.299 4.78315C816.299 3.28315 845.5 4.78315 845.5 4.78315V68.2831H831.299V45.0152H813.799L795.299 68.2831H778.299L797.299 45.0152C784.728 40.6701 779.299 34.7831 779.299 24.2831C779.299 13.7831 786.299 6.28315 801.299 4.78315ZM831.299 14.7831H804.299C796.904 16.2536 794.299 18.2831 794.299 24.2831C794.299 30.2831 797.191 32.5996 804.299 34.7831H831.299V14.7831Z" stroke="black"/>
<path d="M693.8 4.78315H707.961V54.3748L747.799 4.78315H766.299V68.2831H752.299V17.7831L712.299 68.2831H693.8V4.78315Z" stroke="black"/>
</svg>
